<mxfile host="app.diagrams.net" modified="2024-05-04T15:21:06.051Z" agent="Mozilla/5.0 (Macintosh; Intel Mac OS X 10_15_7) AppleWebKit/537.36 (KHTML, like Gecko) Chrome/123.0.0.0 Safari/537.36" etag="fJvSrLC8AtNKHkLqoJ4O" version="24.3.1" type="google" pages="2">
  <diagram name="4.1_Tạo khách nợ mới" id="uuB1c0gFS-fiH3jrwRur">
    <mxGraphModel dx="1323" dy="942" grid="1" gridSize="10" guides="1" tooltips="1" connect="1" arrows="1" fold="1" page="1" pageScale="1" pageWidth="827" pageHeight="1169" math="0" shadow="0">
      <root>
        <mxCell id="0" />
        <mxCell id="1" parent="0" />
        <mxCell id="QtV_JU0h1Bjv6FbceKSb-1" value="Chủ tạp hoá" style="swimlane;whiteSpace=wrap;html=1;fontSize=15;startSize=40;fillColor=#f5f5f5;fontColor=#333333;strokeColor=#666666;fontFamily=Helvetica;" parent="1" vertex="1">
          <mxGeometry x="40" y="40" width="320" height="920" as="geometry" />
        </mxCell>
        <mxCell id="QtV_JU0h1Bjv6FbceKSb-45" value="" style="ellipse;html=1;shape=startState;fillColor=#000000;strokeColor=#ff0000;" parent="QtV_JU0h1Bjv6FbceKSb-1" vertex="1">
          <mxGeometry x="30" y="80" width="30" height="30" as="geometry" />
        </mxCell>
        <mxCell id="QtV_JU0h1Bjv6FbceKSb-46" value="" style="edgeStyle=orthogonalEdgeStyle;html=1;verticalAlign=bottom;endArrow=open;endSize=8;strokeColor=#ff0000;rounded=0;fontSize=12;" parent="QtV_JU0h1Bjv6FbceKSb-1" source="QtV_JU0h1Bjv6FbceKSb-45" edge="1">
          <mxGeometry relative="1" as="geometry">
            <mxPoint x="120" y="95" as="targetPoint" />
          </mxGeometry>
        </mxCell>
        <mxCell id="QtV_JU0h1Bjv6FbceKSb-47" value="&lt;span style=&quot;font-size: 12px;&quot; id=&quot;docs-internal-guid-baf32efa-7fff-d28d-bb94-a82c497c9965&quot;&gt;&lt;span style=&quot;font-size: 12px; font-family: Arial, sans-serif; background-color: transparent; font-variant-numeric: normal; font-variant-east-asian: normal; font-variant-alternates: normal; font-variant-position: normal; vertical-align: baseline; white-space-collapse: preserve;&quot;&gt;Chọn biểu tượng tạo khách nợ&lt;/span&gt;&lt;/span&gt;" style="rounded=1;whiteSpace=wrap;html=1;arcSize=40;fontColor=#000000;fillColor=#ffffc0;strokeColor=#ff0000;fontSize=12;" parent="QtV_JU0h1Bjv6FbceKSb-1" vertex="1">
          <mxGeometry x="120" y="80" width="120" height="40" as="geometry" />
        </mxCell>
        <mxCell id="QR038kE160__zHdOSci8-3" value="&lt;span style=&quot;font-size: 12px;&quot; id=&quot;docs-internal-guid-3ce9669f-7fff-c7c8-4463-4c6598421f55&quot;&gt;&lt;span style=&quot;font-size: 12px; font-family: Arial, sans-serif; background-color: transparent; font-variant-numeric: normal; font-variant-east-asian: normal; font-variant-alternates: normal; font-variant-position: normal; vertical-align: baseline; white-space-collapse: preserve;&quot;&gt;Nhập tên khách nợ&lt;/span&gt;&lt;/span&gt;" style="rounded=1;whiteSpace=wrap;html=1;arcSize=40;fontColor=#000000;fillColor=#ffffc0;strokeColor=#ff0000;fontSize=12;" vertex="1" parent="QtV_JU0h1Bjv6FbceKSb-1">
          <mxGeometry x="120" y="160" width="120" height="40" as="geometry" />
        </mxCell>
        <mxCell id="QR038kE160__zHdOSci8-4" value="" style="edgeStyle=orthogonalEdgeStyle;html=1;verticalAlign=bottom;endArrow=open;endSize=8;strokeColor=#ff0000;rounded=0;fontSize=12;" edge="1" source="QR038kE160__zHdOSci8-3" parent="QtV_JU0h1Bjv6FbceKSb-1">
          <mxGeometry relative="1" as="geometry">
            <mxPoint x="180" y="240" as="targetPoint" />
          </mxGeometry>
        </mxCell>
        <mxCell id="QR038kE160__zHdOSci8-5" value="&lt;span style=&quot;font-size: 12px;&quot; id=&quot;docs-internal-guid-e0c52a20-7fff-0edb-4b21-3dd2efc36ac7&quot;&gt;&lt;span style=&quot;font-size: 12px; font-family: Arial, sans-serif; background-color: transparent; font-variant-numeric: normal; font-variant-east-asian: normal; font-variant-alternates: normal; font-variant-position: normal; vertical-align: baseline; white-space-collapse: preserve;&quot;&gt;nhập địa chỉ&lt;/span&gt;&lt;/span&gt;" style="rounded=1;whiteSpace=wrap;html=1;arcSize=40;fontColor=#000000;fillColor=#ffffc0;strokeColor=#ff0000;fontSize=12;" vertex="1" parent="QtV_JU0h1Bjv6FbceKSb-1">
          <mxGeometry x="120" y="480" width="120" height="40" as="geometry" />
        </mxCell>
        <mxCell id="QR038kE160__zHdOSci8-6" value="" style="edgeStyle=orthogonalEdgeStyle;html=1;verticalAlign=bottom;endArrow=open;endSize=8;strokeColor=#ff0000;rounded=0;fontSize=12;" edge="1" parent="QtV_JU0h1Bjv6FbceKSb-1" source="QR038kE160__zHdOSci8-5">
          <mxGeometry relative="1" as="geometry">
            <mxPoint x="180" y="560" as="targetPoint" />
          </mxGeometry>
        </mxCell>
        <mxCell id="QR038kE160__zHdOSci8-7" value="Nhập địa chỉ?" style="rhombus;whiteSpace=wrap;html=1;fontColor=#000000;fillColor=#ffffc0;strokeColor=#ff0000;fontSize=12;" vertex="1" parent="QtV_JU0h1Bjv6FbceKSb-1">
          <mxGeometry x="120" y="400" width="120" height="40" as="geometry" />
        </mxCell>
        <mxCell id="QR038kE160__zHdOSci8-8" value="Không" style="edgeStyle=orthogonalEdgeStyle;html=1;align=left;verticalAlign=bottom;endArrow=open;endSize=8;strokeColor=#ff0000;rounded=0;entryX=1;entryY=0.5;entryDx=0;entryDy=0;fontSize=12;" edge="1" source="QR038kE160__zHdOSci8-7" parent="QtV_JU0h1Bjv6FbceKSb-1" target="QR038kE160__zHdOSci8-12">
          <mxGeometry x="-1" relative="1" as="geometry">
            <mxPoint x="320" y="420" as="targetPoint" />
            <Array as="points">
              <mxPoint x="280" y="420" />
              <mxPoint x="280" y="580" />
            </Array>
          </mxGeometry>
        </mxCell>
        <mxCell id="QR038kE160__zHdOSci8-9" value="Có" style="edgeStyle=orthogonalEdgeStyle;html=1;align=left;verticalAlign=top;endArrow=open;endSize=8;strokeColor=#ff0000;rounded=0;fontSize=12;" edge="1" source="QR038kE160__zHdOSci8-7" parent="QtV_JU0h1Bjv6FbceKSb-1">
          <mxGeometry x="-1" relative="1" as="geometry">
            <mxPoint x="180" y="480" as="targetPoint" />
          </mxGeometry>
        </mxCell>
        <mxCell id="QR038kE160__zHdOSci8-12" value="Nhập ghi chú?" style="rhombus;whiteSpace=wrap;html=1;fontColor=#000000;fillColor=#ffffc0;strokeColor=#ff0000;fontSize=12;" vertex="1" parent="QtV_JU0h1Bjv6FbceKSb-1">
          <mxGeometry x="120" y="560" width="120" height="40" as="geometry" />
        </mxCell>
        <mxCell id="QR038kE160__zHdOSci8-13" value="Không" style="edgeStyle=orthogonalEdgeStyle;html=1;align=left;verticalAlign=bottom;endArrow=open;endSize=8;strokeColor=#ff0000;rounded=0;entryX=0.99;entryY=0.248;entryDx=0;entryDy=0;fontSize=12;entryPerimeter=0;" edge="1" parent="QtV_JU0h1Bjv6FbceKSb-1" target="QR038kE160__zHdOSci8-15">
          <mxGeometry x="-0.5714" y="-20" relative="1" as="geometry">
            <mxPoint x="290" y="700" as="targetPoint" />
            <mxPoint x="180" y="600" as="sourcePoint" />
            <Array as="points">
              <mxPoint x="280" y="600" />
              <mxPoint x="280" y="730" />
            </Array>
            <mxPoint as="offset" />
          </mxGeometry>
        </mxCell>
        <mxCell id="QR038kE160__zHdOSci8-14" value="Có" style="edgeStyle=orthogonalEdgeStyle;html=1;align=left;verticalAlign=top;endArrow=open;endSize=8;strokeColor=#ff0000;rounded=0;fontSize=12;" edge="1" parent="QtV_JU0h1Bjv6FbceKSb-1" source="QR038kE160__zHdOSci8-12">
          <mxGeometry x="-1" relative="1" as="geometry">
            <mxPoint x="180" y="640" as="targetPoint" />
          </mxGeometry>
        </mxCell>
        <mxCell id="QR038kE160__zHdOSci8-10" value="&lt;span style=&quot;font-size: 12px;&quot; id=&quot;docs-internal-guid-e0c52a20-7fff-0edb-4b21-3dd2efc36ac7&quot;&gt;&lt;span style=&quot;font-size: 12px; font-family: Arial, sans-serif; background-color: transparent; font-variant-numeric: normal; font-variant-east-asian: normal; font-variant-alternates: normal; font-variant-position: normal; vertical-align: baseline; white-space-collapse: preserve;&quot;&gt;Nhập ghi chú&lt;/span&gt;&lt;/span&gt;" style="rounded=1;whiteSpace=wrap;html=1;arcSize=40;fontColor=#000000;fillColor=#ffffc0;strokeColor=#ff0000;fontSize=12;" vertex="1" parent="QtV_JU0h1Bjv6FbceKSb-1">
          <mxGeometry x="120" y="640" width="120" height="40" as="geometry" />
        </mxCell>
        <mxCell id="QR038kE160__zHdOSci8-11" value="" style="edgeStyle=orthogonalEdgeStyle;html=1;verticalAlign=bottom;endArrow=open;endSize=8;strokeColor=#ff0000;rounded=0;fontSize=12;" edge="1" parent="QtV_JU0h1Bjv6FbceKSb-1" source="QR038kE160__zHdOSci8-10">
          <mxGeometry relative="1" as="geometry">
            <mxPoint x="180" y="720" as="targetPoint" />
          </mxGeometry>
        </mxCell>
        <mxCell id="QR038kE160__zHdOSci8-15" value="&lt;span style=&quot;font-size: 12px;&quot; id=&quot;docs-internal-guid-5590cee3-7fff-e555-e880-4204069137a0&quot;&gt;&lt;span style=&quot;font-size: 12px; font-family: Arial, sans-serif; background-color: transparent; font-variant-numeric: normal; font-variant-east-asian: normal; font-variant-alternates: normal; font-variant-position: normal; vertical-align: baseline; white-space-collapse: preserve;&quot;&gt;Chọn “Hoàn thành”&lt;/span&gt;&lt;/span&gt;" style="rounded=1;whiteSpace=wrap;html=1;arcSize=40;fontColor=#000000;fillColor=#ffffc0;strokeColor=#ff0000;fontSize=12;" vertex="1" parent="QtV_JU0h1Bjv6FbceKSb-1">
          <mxGeometry x="120" y="720" width="120" height="40" as="geometry" />
        </mxCell>
        <mxCell id="QR038kE160__zHdOSci8-17" value="&lt;span style=&quot;font-size: 12px;&quot; id=&quot;docs-internal-guid-565725f6-7fff-8a99-db99-9c4b8b343997&quot;&gt;&lt;span style=&quot;font-size: 12px; font-family: Arial, sans-serif; background-color: transparent; font-variant-numeric: normal; font-variant-east-asian: normal; font-variant-alternates: normal; font-variant-position: normal; vertical-align: baseline; white-space-collapse: preserve;&quot;&gt;Nhập số điện thoại&lt;/span&gt;&lt;/span&gt;" style="rounded=1;whiteSpace=wrap;html=1;arcSize=40;fontColor=#000000;fillColor=#ffffc0;strokeColor=#ff0000;fontSize=12;" vertex="1" parent="QtV_JU0h1Bjv6FbceKSb-1">
          <mxGeometry x="120" y="240" width="120" height="40" as="geometry" />
        </mxCell>
        <mxCell id="QR038kE160__zHdOSci8-18" value="" style="edgeStyle=orthogonalEdgeStyle;html=1;verticalAlign=bottom;endArrow=open;endSize=8;strokeColor=#ff0000;rounded=0;fontSize=12;" edge="1" source="QR038kE160__zHdOSci8-17" parent="QtV_JU0h1Bjv6FbceKSb-1">
          <mxGeometry relative="1" as="geometry">
            <mxPoint x="180" y="320" as="targetPoint" />
          </mxGeometry>
        </mxCell>
        <mxCell id="QR038kE160__zHdOSci8-19" value="Đúng định dạng?" style="rhombus;whiteSpace=wrap;html=1;fontColor=#000000;fillColor=#ffffc0;strokeColor=#ff0000;" vertex="1" parent="QtV_JU0h1Bjv6FbceKSb-1">
          <mxGeometry x="120" y="320" width="120" height="40" as="geometry" />
        </mxCell>
        <mxCell id="QR038kE160__zHdOSci8-21" value="Có" style="edgeStyle=orthogonalEdgeStyle;html=1;align=left;verticalAlign=top;endArrow=open;endSize=8;strokeColor=#ff0000;rounded=0;" edge="1" source="QR038kE160__zHdOSci8-19" parent="QtV_JU0h1Bjv6FbceKSb-1">
          <mxGeometry x="-1" relative="1" as="geometry">
            <mxPoint x="180" y="400" as="targetPoint" />
          </mxGeometry>
        </mxCell>
        <mxCell id="QtV_JU0h1Bjv6FbceKSb-18" value="Hệ thống" style="swimlane;whiteSpace=wrap;html=1;fontSize=15;startSize=40;fillColor=#f5f5f5;fontColor=#333333;strokeColor=#666666;fontFamily=Helvetica;" parent="1" vertex="1">
          <mxGeometry x="360" y="40" width="280" height="920" as="geometry" />
        </mxCell>
        <mxCell id="QR038kE160__zHdOSci8-1" value="&lt;span style=&quot;font-size: 12px;&quot; id=&quot;docs-internal-guid-22f0405c-7fff-70ba-d19d-fb5dece0f80e&quot;&gt;&lt;span style=&quot;font-size: 12px; font-family: Arial, sans-serif; background-color: transparent; font-variant-numeric: normal; font-variant-east-asian: normal; font-variant-alternates: normal; font-variant-position: normal; vertical-align: baseline; white-space-collapse: preserve;&quot;&gt;Hiển thị mã khách nợ&lt;/span&gt;&lt;/span&gt;" style="rounded=1;whiteSpace=wrap;html=1;arcSize=40;fontColor=#000000;fillColor=#ffffc0;strokeColor=#ff0000;fontSize=12;" vertex="1" parent="QtV_JU0h1Bjv6FbceKSb-18">
          <mxGeometry x="40" y="80" width="120" height="40" as="geometry" />
        </mxCell>
        <mxCell id="QR038kE160__zHdOSci8-22" value="&lt;span style=&quot;font-size: 12px;&quot; id=&quot;docs-internal-guid-b8a2318e-7fff-7ab2-1d01-afe3802fab19&quot;&gt;&lt;span style=&quot;font-size: 12px; font-family: Arial, sans-serif; background-color: transparent; font-variant-numeric: normal; font-variant-east-asian: normal; font-variant-alternates: normal; font-variant-position: normal; vertical-align: baseline; white-space-collapse: preserve;&quot;&gt;Hiển thị thông báo “Không hợp lệ&quot;&lt;/span&gt;&lt;/span&gt;" style="rounded=1;whiteSpace=wrap;html=1;arcSize=40;fontColor=#000000;fillColor=#ffffc0;strokeColor=#ff0000;fontSize=12;" vertex="1" parent="QtV_JU0h1Bjv6FbceKSb-18">
          <mxGeometry x="40" y="320" width="120" height="40" as="geometry" />
        </mxCell>
        <mxCell id="QR038kE160__zHdOSci8-24" value="&lt;span style=&quot;font-size: 12px;&quot; id=&quot;docs-internal-guid-639970af-7fff-cf01-b28d-d9577cb54e80&quot;&gt;&lt;span style=&quot;font-size: 12px; font-family: Arial, sans-serif; background-color: transparent; font-variant-numeric: normal; font-variant-east-asian: normal; font-variant-alternates: normal; font-variant-position: normal; vertical-align: baseline; white-space-collapse: preserve;&quot;&gt;Lưu thông tin khách nợ mới&lt;/span&gt;&lt;/span&gt;" style="rounded=1;whiteSpace=wrap;html=1;arcSize=40;fontColor=#000000;fillColor=#ffffc0;strokeColor=#ff0000;fontSize=12;" vertex="1" parent="QtV_JU0h1Bjv6FbceKSb-18">
          <mxGeometry x="40" y="720" width="120" height="40" as="geometry" />
        </mxCell>
        <mxCell id="QR038kE160__zHdOSci8-25" value="" style="edgeStyle=orthogonalEdgeStyle;html=1;verticalAlign=bottom;endArrow=open;endSize=8;strokeColor=#ff0000;rounded=0;" edge="1" source="QR038kE160__zHdOSci8-24" parent="QtV_JU0h1Bjv6FbceKSb-18">
          <mxGeometry relative="1" as="geometry">
            <mxPoint x="100" y="800" as="targetPoint" />
          </mxGeometry>
        </mxCell>
        <mxCell id="QR038kE160__zHdOSci8-26" value="Thành công?" style="rhombus;whiteSpace=wrap;html=1;fontColor=#000000;fillColor=#ffffc0;strokeColor=#ff0000;" vertex="1" parent="QtV_JU0h1Bjv6FbceKSb-18">
          <mxGeometry x="60" y="800" width="80" height="40" as="geometry" />
        </mxCell>
        <mxCell id="QR038kE160__zHdOSci8-27" value="Không" style="edgeStyle=orthogonalEdgeStyle;html=1;align=left;verticalAlign=bottom;endArrow=open;endSize=8;strokeColor=#ff0000;rounded=0;" edge="1" source="QR038kE160__zHdOSci8-26" parent="QtV_JU0h1Bjv6FbceKSb-18">
          <mxGeometry x="-1" relative="1" as="geometry">
            <mxPoint x="180" y="680" as="targetPoint" />
          </mxGeometry>
        </mxCell>
        <mxCell id="QR038kE160__zHdOSci8-28" value="Có" style="edgeStyle=orthogonalEdgeStyle;html=1;align=left;verticalAlign=top;endArrow=open;endSize=8;strokeColor=#ff0000;rounded=0;entryX=0.034;entryY=0.338;entryDx=0;entryDy=0;entryPerimeter=0;" edge="1" source="QR038kE160__zHdOSci8-26" parent="QtV_JU0h1Bjv6FbceKSb-18" target="QR038kE160__zHdOSci8-32">
          <mxGeometry x="-1" relative="1" as="geometry">
            <mxPoint x="210" y="880" as="targetPoint" />
            <Array as="points">
              <mxPoint x="100" y="880" />
            </Array>
          </mxGeometry>
        </mxCell>
        <mxCell id="QR038kE160__zHdOSci8-30" value="&lt;span style=&quot;font-size: 12px;&quot; id=&quot;docs-internal-guid-368e339d-7fff-3b42-c4de-e41b107b2b51&quot;&gt;&lt;span style=&quot;font-size: 12px; font-family: Arial, sans-serif; background-color: transparent; font-variant-numeric: normal; font-variant-east-asian: normal; font-variant-alternates: normal; font-variant-position: normal; vertical-align: baseline; white-space-collapse: preserve;&quot;&gt;Hiển thị thông báo “Lưu không thành công”&lt;/span&gt;&lt;/span&gt;" style="rounded=1;whiteSpace=wrap;html=1;arcSize=40;fontColor=#000000;fillColor=#ffffc0;strokeColor=#ff0000;fontSize=12;" vertex="1" parent="QtV_JU0h1Bjv6FbceKSb-18">
          <mxGeometry x="120" y="640" width="120" height="40" as="geometry" />
        </mxCell>
        <mxCell id="QR038kE160__zHdOSci8-31" value="" style="edgeStyle=orthogonalEdgeStyle;html=1;verticalAlign=bottom;endArrow=open;endSize=8;strokeColor=#ff0000;rounded=0;exitX=0.75;exitY=1;exitDx=0;exitDy=0;entryX=0.5;entryY=0;entryDx=0;entryDy=0;" edge="1" source="QR038kE160__zHdOSci8-30" parent="QtV_JU0h1Bjv6FbceKSb-18" target="QR038kE160__zHdOSci8-32">
          <mxGeometry relative="1" as="geometry">
            <mxPoint x="190" y="740" as="targetPoint" />
          </mxGeometry>
        </mxCell>
        <mxCell id="QR038kE160__zHdOSci8-32" value="" style="ellipse;html=1;shape=endState;fillColor=#000000;strokeColor=#ff0000;" vertex="1" parent="QtV_JU0h1Bjv6FbceKSb-18">
          <mxGeometry x="195" y="870" width="30" height="30" as="geometry" />
        </mxCell>
        <mxCell id="QtV_JU0h1Bjv6FbceKSb-48" value="" style="edgeStyle=orthogonalEdgeStyle;html=1;verticalAlign=bottom;endArrow=open;endSize=8;strokeColor=#ff0000;rounded=0;entryX=0;entryY=0.5;entryDx=0;entryDy=0;fontSize=12;" parent="1" source="QtV_JU0h1Bjv6FbceKSb-47" edge="1" target="QR038kE160__zHdOSci8-1">
          <mxGeometry relative="1" as="geometry">
            <mxPoint x="220" y="200" as="targetPoint" />
          </mxGeometry>
        </mxCell>
        <mxCell id="QR038kE160__zHdOSci8-2" value="" style="edgeStyle=orthogonalEdgeStyle;html=1;verticalAlign=bottom;endArrow=open;endSize=8;strokeColor=#ff0000;rounded=0;entryX=1;entryY=0.5;entryDx=0;entryDy=0;fontSize=12;" edge="1" source="QR038kE160__zHdOSci8-1" parent="1" target="QR038kE160__zHdOSci8-3">
          <mxGeometry relative="1" as="geometry">
            <mxPoint x="460" y="220" as="targetPoint" />
            <Array as="points">
              <mxPoint x="460" y="220" />
            </Array>
          </mxGeometry>
        </mxCell>
        <mxCell id="QR038kE160__zHdOSci8-20" value="Không" style="edgeStyle=orthogonalEdgeStyle;html=1;align=left;verticalAlign=bottom;endArrow=open;endSize=8;strokeColor=#ff0000;rounded=0;entryX=0;entryY=0.5;entryDx=0;entryDy=0;" edge="1" source="QR038kE160__zHdOSci8-19" parent="1" target="QR038kE160__zHdOSci8-22">
          <mxGeometry x="-1" relative="1" as="geometry">
            <mxPoint x="360" y="380" as="targetPoint" />
          </mxGeometry>
        </mxCell>
        <mxCell id="QR038kE160__zHdOSci8-23" value="" style="edgeStyle=orthogonalEdgeStyle;html=1;verticalAlign=bottom;endArrow=open;endSize=8;strokeColor=#ff0000;rounded=0;entryX=1;entryY=0.5;entryDx=0;entryDy=0;" edge="1" source="QR038kE160__zHdOSci8-22" parent="1" target="QR038kE160__zHdOSci8-17">
          <mxGeometry relative="1" as="geometry">
            <mxPoint x="460" y="460" as="targetPoint" />
            <Array as="points">
              <mxPoint x="460" y="300" />
            </Array>
          </mxGeometry>
        </mxCell>
        <mxCell id="QR038kE160__zHdOSci8-16" value="" style="edgeStyle=orthogonalEdgeStyle;html=1;verticalAlign=bottom;endArrow=open;endSize=8;strokeColor=#ff0000;rounded=0;fontSize=12;entryX=0.004;entryY=0.675;entryDx=0;entryDy=0;entryPerimeter=0;exitX=1.006;exitY=0.668;exitDx=0;exitDy=0;exitPerimeter=0;" edge="1" source="QR038kE160__zHdOSci8-15" parent="1" target="QR038kE160__zHdOSci8-24">
          <mxGeometry relative="1" as="geometry">
            <mxPoint x="220" y="860" as="targetPoint" />
          </mxGeometry>
        </mxCell>
      </root>
    </mxGraphModel>
  </diagram>
  <diagram id="cEE4FlFunp5l9FQUpC72" name="4.2_Sửa thông tin khách nợ">
    <mxGraphModel grid="1" page="1" gridSize="10" guides="1" tooltips="1" connect="1" arrows="1" fold="1" pageScale="1" pageWidth="827" pageHeight="1169" math="0" shadow="0">
      <root>
        <mxCell id="0" />
        <mxCell id="1" parent="0" />
        <mxCell id="0EAiOjiRZh-0OU-kxkzn-1" value="Chủ tạp hoá" style="swimlane;whiteSpace=wrap;html=1;fontSize=15;startSize=40;fillColor=#f5f5f5;fontColor=#333333;strokeColor=#666666;fontFamily=Helvetica;" vertex="1" parent="1">
          <mxGeometry x="80" y="40" width="360" height="1040" as="geometry" />
        </mxCell>
        <mxCell id="0EAiOjiRZh-0OU-kxkzn-2" value="Chọn &quot;Sửa khách nợ&quot;" style="rounded=1;whiteSpace=wrap;html=1;arcSize=40;fontColor=#000000;fillColor=#ffffc0;strokeColor=#ff0000;" vertex="1" parent="0EAiOjiRZh-0OU-kxkzn-1">
          <mxGeometry x="120" y="80" width="120" height="40" as="geometry" />
        </mxCell>
        <mxCell id="0EAiOjiRZh-0OU-kxkzn-3" value="" style="edgeStyle=orthogonalEdgeStyle;html=1;verticalAlign=bottom;endArrow=open;endSize=8;strokeColor=#ff0000;rounded=0;" edge="1" parent="0EAiOjiRZh-0OU-kxkzn-1" source="0EAiOjiRZh-0OU-kxkzn-2" target="0EAiOjiRZh-0OU-kxkzn-6">
          <mxGeometry relative="1" as="geometry">
            <mxPoint x="180" y="180" as="targetPoint" />
          </mxGeometry>
        </mxCell>
        <mxCell id="0EAiOjiRZh-0OU-kxkzn-4" value="" style="ellipse;html=1;shape=startState;fillColor=#000000;strokeColor=#ff0000;" vertex="1" parent="0EAiOjiRZh-0OU-kxkzn-1">
          <mxGeometry x="40" y="85" width="30" height="30" as="geometry" />
        </mxCell>
        <mxCell id="0EAiOjiRZh-0OU-kxkzn-5" value="" style="edgeStyle=orthogonalEdgeStyle;html=1;verticalAlign=bottom;endArrow=open;endSize=8;strokeColor=#ff0000;rounded=0;" edge="1" parent="0EAiOjiRZh-0OU-kxkzn-1" source="0EAiOjiRZh-0OU-kxkzn-4" target="0EAiOjiRZh-0OU-kxkzn-2">
          <mxGeometry relative="1" as="geometry">
            <mxPoint x="55" y="175" as="targetPoint" />
          </mxGeometry>
        </mxCell>
        <mxCell id="0EAiOjiRZh-0OU-kxkzn-6" value="Sửa tên khách nợ?" style="rhombus;whiteSpace=wrap;html=1;fontColor=#000000;fillColor=#ffffc0;strokeColor=#ff0000;" vertex="1" parent="0EAiOjiRZh-0OU-kxkzn-1">
          <mxGeometry x="140" y="160" width="80" height="40" as="geometry" />
        </mxCell>
        <mxCell id="0EAiOjiRZh-0OU-kxkzn-7" value="không" style="edgeStyle=orthogonalEdgeStyle;html=1;align=left;verticalAlign=bottom;endArrow=open;endSize=8;strokeColor=#ff0000;rounded=0;" edge="1" parent="0EAiOjiRZh-0OU-kxkzn-1" source="0EAiOjiRZh-0OU-kxkzn-6" target="0EAiOjiRZh-0OU-kxkzn-11">
          <mxGeometry x="-0.7857" relative="1" as="geometry">
            <mxPoint x="320" y="180" as="targetPoint" />
            <Array as="points">
              <mxPoint x="80" y="180" />
              <mxPoint x="80" y="340" />
            </Array>
            <mxPoint as="offset" />
          </mxGeometry>
        </mxCell>
        <mxCell id="0EAiOjiRZh-0OU-kxkzn-8" value="có" style="edgeStyle=orthogonalEdgeStyle;html=1;align=left;verticalAlign=top;endArrow=open;endSize=8;strokeColor=#ff0000;rounded=0;" edge="1" parent="0EAiOjiRZh-0OU-kxkzn-1" source="0EAiOjiRZh-0OU-kxkzn-6" target="0EAiOjiRZh-0OU-kxkzn-9">
          <mxGeometry x="-1" relative="1" as="geometry">
            <mxPoint x="180" y="260" as="targetPoint" />
          </mxGeometry>
        </mxCell>
        <mxCell id="0EAiOjiRZh-0OU-kxkzn-9" value="Nhập tên khách nợ" style="rounded=1;whiteSpace=wrap;html=1;arcSize=40;fontColor=#000000;fillColor=#ffffc0;strokeColor=#ff0000;" vertex="1" parent="0EAiOjiRZh-0OU-kxkzn-1">
          <mxGeometry x="120" y="240" width="120" height="40" as="geometry" />
        </mxCell>
        <mxCell id="0EAiOjiRZh-0OU-kxkzn-10" value="" style="edgeStyle=orthogonalEdgeStyle;html=1;verticalAlign=bottom;endArrow=open;endSize=8;strokeColor=#ff0000;rounded=0;" edge="1" parent="0EAiOjiRZh-0OU-kxkzn-1" source="0EAiOjiRZh-0OU-kxkzn-9">
          <mxGeometry relative="1" as="geometry">
            <mxPoint x="180" y="340" as="targetPoint" />
          </mxGeometry>
        </mxCell>
        <mxCell id="0EAiOjiRZh-0OU-kxkzn-11" value="Sửa số điện thoại?" style="rhombus;whiteSpace=wrap;html=1;fontColor=#000000;fillColor=#ffffc0;strokeColor=#ff0000;" vertex="1" parent="0EAiOjiRZh-0OU-kxkzn-1">
          <mxGeometry x="140" y="320" width="80" height="40" as="geometry" />
        </mxCell>
        <mxCell id="0EAiOjiRZh-0OU-kxkzn-12" value="không" style="edgeStyle=orthogonalEdgeStyle;html=1;align=left;verticalAlign=bottom;endArrow=open;endSize=8;strokeColor=#ff0000;rounded=0;" edge="1" parent="0EAiOjiRZh-0OU-kxkzn-1" source="0EAiOjiRZh-0OU-kxkzn-11" target="0EAiOjiRZh-0OU-kxkzn-16">
          <mxGeometry x="-1" relative="1" as="geometry">
            <mxPoint x="320" y="340" as="targetPoint" />
            <Array as="points">
              <mxPoint x="280" y="340" />
              <mxPoint x="280" y="500" />
            </Array>
          </mxGeometry>
        </mxCell>
        <mxCell id="0EAiOjiRZh-0OU-kxkzn-13" value="có" style="edgeStyle=orthogonalEdgeStyle;html=1;align=left;verticalAlign=top;endArrow=open;endSize=8;strokeColor=#ff0000;rounded=0;" edge="1" parent="0EAiOjiRZh-0OU-kxkzn-1" source="0EAiOjiRZh-0OU-kxkzn-11" target="0EAiOjiRZh-0OU-kxkzn-14">
          <mxGeometry x="-1" relative="1" as="geometry">
            <mxPoint x="180" y="420" as="targetPoint" />
          </mxGeometry>
        </mxCell>
        <mxCell id="0EAiOjiRZh-0OU-kxkzn-14" value="Nhập số điện thoại" style="rounded=1;whiteSpace=wrap;html=1;arcSize=40;fontColor=#000000;fillColor=#ffffc0;strokeColor=#ff0000;" vertex="1" parent="0EAiOjiRZh-0OU-kxkzn-1">
          <mxGeometry x="120" y="400" width="120" height="40" as="geometry" />
        </mxCell>
        <mxCell id="0EAiOjiRZh-0OU-kxkzn-15" value="" style="edgeStyle=orthogonalEdgeStyle;html=1;verticalAlign=bottom;endArrow=open;endSize=8;strokeColor=#ff0000;rounded=0;" edge="1" parent="0EAiOjiRZh-0OU-kxkzn-1" source="0EAiOjiRZh-0OU-kxkzn-14" target="0EAiOjiRZh-0OU-kxkzn-16">
          <mxGeometry relative="1" as="geometry">
            <mxPoint x="180" y="500" as="targetPoint" />
          </mxGeometry>
        </mxCell>
        <mxCell id="0EAiOjiRZh-0OU-kxkzn-16" value="Sửa địa chỉ?" style="rhombus;whiteSpace=wrap;html=1;fontColor=#000000;fillColor=#ffffc0;strokeColor=#ff0000;" vertex="1" parent="0EAiOjiRZh-0OU-kxkzn-1">
          <mxGeometry x="140" y="480" width="80" height="40" as="geometry" />
        </mxCell>
        <mxCell id="0EAiOjiRZh-0OU-kxkzn-17" value="không" style="edgeStyle=orthogonalEdgeStyle;html=1;align=left;verticalAlign=bottom;endArrow=open;endSize=8;strokeColor=#ff0000;rounded=0;" edge="1" parent="0EAiOjiRZh-0OU-kxkzn-1" source="0EAiOjiRZh-0OU-kxkzn-16" target="0EAiOjiRZh-0OU-kxkzn-21">
          <mxGeometry x="-0.7857" relative="1" as="geometry">
            <mxPoint x="320" y="500" as="targetPoint" />
            <Array as="points">
              <mxPoint x="80" y="500" />
              <mxPoint x="80" y="660" />
            </Array>
            <mxPoint as="offset" />
          </mxGeometry>
        </mxCell>
        <mxCell id="0EAiOjiRZh-0OU-kxkzn-18" value="có" style="edgeStyle=orthogonalEdgeStyle;html=1;align=left;verticalAlign=top;endArrow=open;endSize=8;strokeColor=#ff0000;rounded=0;" edge="1" parent="0EAiOjiRZh-0OU-kxkzn-1" source="0EAiOjiRZh-0OU-kxkzn-16" target="0EAiOjiRZh-0OU-kxkzn-19">
          <mxGeometry x="-1" relative="1" as="geometry">
            <mxPoint x="180" y="580" as="targetPoint" />
          </mxGeometry>
        </mxCell>
        <mxCell id="0EAiOjiRZh-0OU-kxkzn-19" value="Nhập địa chỉ" style="rounded=1;whiteSpace=wrap;html=1;arcSize=40;fontColor=#000000;fillColor=#ffffc0;strokeColor=#ff0000;" vertex="1" parent="0EAiOjiRZh-0OU-kxkzn-1">
          <mxGeometry x="120" y="560" width="120" height="40" as="geometry" />
        </mxCell>
        <mxCell id="0EAiOjiRZh-0OU-kxkzn-20" value="" style="edgeStyle=orthogonalEdgeStyle;html=1;verticalAlign=bottom;endArrow=open;endSize=8;strokeColor=#ff0000;rounded=0;" edge="1" parent="0EAiOjiRZh-0OU-kxkzn-1" source="0EAiOjiRZh-0OU-kxkzn-19" target="0EAiOjiRZh-0OU-kxkzn-21">
          <mxGeometry relative="1" as="geometry">
            <mxPoint x="180" y="660" as="targetPoint" />
          </mxGeometry>
        </mxCell>
        <mxCell id="0EAiOjiRZh-0OU-kxkzn-21" value="Nhập ghi chú?" style="rhombus;whiteSpace=wrap;html=1;fontColor=#000000;fillColor=#ffffc0;strokeColor=#ff0000;" vertex="1" parent="0EAiOjiRZh-0OU-kxkzn-1">
          <mxGeometry x="140" y="640" width="80" height="40" as="geometry" />
        </mxCell>
        <mxCell id="0EAiOjiRZh-0OU-kxkzn-22" value="không" style="edgeStyle=orthogonalEdgeStyle;html=1;align=left;verticalAlign=bottom;endArrow=open;endSize=8;strokeColor=#ff0000;rounded=0;" edge="1" parent="0EAiOjiRZh-0OU-kxkzn-1" source="0EAiOjiRZh-0OU-kxkzn-21" target="0EAiOjiRZh-0OU-kxkzn-23">
          <mxGeometry x="-1" relative="1" as="geometry">
            <mxPoint x="320" y="660" as="targetPoint" />
            <Array as="points">
              <mxPoint x="280" y="660" />
              <mxPoint x="280" y="820" />
            </Array>
          </mxGeometry>
        </mxCell>
        <mxCell id="0EAiOjiRZh-0OU-kxkzn-23" value="Chọn &quot;Hoàn thành&quot;" style="rounded=1;whiteSpace=wrap;html=1;arcSize=40;fontColor=#000000;fillColor=#ffffc0;strokeColor=#ff0000;" vertex="1" parent="0EAiOjiRZh-0OU-kxkzn-1">
          <mxGeometry x="120" y="800" width="120" height="40" as="geometry" />
        </mxCell>
        <mxCell id="0EAiOjiRZh-0OU-kxkzn-24" value="Nhập ghi chú" style="rounded=1;whiteSpace=wrap;html=1;arcSize=40;fontColor=#000000;fillColor=#ffffc0;strokeColor=#ff0000;" vertex="1" parent="0EAiOjiRZh-0OU-kxkzn-1">
          <mxGeometry x="120" y="720" width="120" height="40" as="geometry" />
        </mxCell>
        <mxCell id="0EAiOjiRZh-0OU-kxkzn-25" value="có" style="edgeStyle=orthogonalEdgeStyle;html=1;align=left;verticalAlign=top;endArrow=open;endSize=8;strokeColor=#ff0000;rounded=0;" edge="1" parent="0EAiOjiRZh-0OU-kxkzn-1" source="0EAiOjiRZh-0OU-kxkzn-21" target="0EAiOjiRZh-0OU-kxkzn-24">
          <mxGeometry x="-1" relative="1" as="geometry">
            <mxPoint x="180" y="740" as="targetPoint" />
          </mxGeometry>
        </mxCell>
        <mxCell id="0EAiOjiRZh-0OU-kxkzn-26" value="" style="edgeStyle=orthogonalEdgeStyle;html=1;verticalAlign=bottom;endArrow=open;endSize=8;strokeColor=#ff0000;rounded=0;" edge="1" parent="0EAiOjiRZh-0OU-kxkzn-1" source="0EAiOjiRZh-0OU-kxkzn-24" target="0EAiOjiRZh-0OU-kxkzn-23">
          <mxGeometry relative="1" as="geometry">
            <mxPoint x="350" y="810" as="targetPoint" />
          </mxGeometry>
        </mxCell>
        <mxCell id="0EAiOjiRZh-0OU-kxkzn-27" value="Hệ thống" style="swimlane;whiteSpace=wrap;html=1;fontSize=15;startSize=40;fillColor=#f5f5f5;fontColor=#333333;strokeColor=#666666;fontFamily=Helvetica;" vertex="1" parent="1">
          <mxGeometry x="440" y="40" width="320" height="1040" as="geometry" />
        </mxCell>
        <mxCell id="0EAiOjiRZh-0OU-kxkzn-28" value="&lt;span style=&quot;font-size: 12px;&quot; id=&quot;docs-internal-guid-639970af-7fff-cf01-b28d-d9577cb54e80&quot;&gt;&lt;span style=&quot;font-size: 12px; font-family: Arial, sans-serif; background-color: transparent; font-variant-numeric: normal; font-variant-east-asian: normal; font-variant-alternates: normal; font-variant-position: normal; vertical-align: baseline; white-space-collapse: preserve;&quot;&gt;Lưu thông tin khách nợ&lt;/span&gt;&lt;/span&gt;" style="rounded=1;whiteSpace=wrap;html=1;arcSize=40;fontColor=#000000;fillColor=#ffffc0;strokeColor=#ff0000;fontSize=12;" vertex="1" parent="0EAiOjiRZh-0OU-kxkzn-27">
          <mxGeometry x="40" y="840" width="120" height="40" as="geometry" />
        </mxCell>
        <mxCell id="0EAiOjiRZh-0OU-kxkzn-29" value="" style="edgeStyle=orthogonalEdgeStyle;html=1;verticalAlign=bottom;endArrow=open;endSize=8;strokeColor=#ff0000;rounded=0;" edge="1" parent="0EAiOjiRZh-0OU-kxkzn-27" source="0EAiOjiRZh-0OU-kxkzn-28">
          <mxGeometry relative="1" as="geometry">
            <mxPoint x="100" y="920" as="targetPoint" />
          </mxGeometry>
        </mxCell>
        <mxCell id="0EAiOjiRZh-0OU-kxkzn-30" value="Thành công?" style="rhombus;whiteSpace=wrap;html=1;fontColor=#000000;fillColor=#ffffc0;strokeColor=#ff0000;" vertex="1" parent="0EAiOjiRZh-0OU-kxkzn-27">
          <mxGeometry x="60" y="920" width="80" height="40" as="geometry" />
        </mxCell>
        <mxCell id="0EAiOjiRZh-0OU-kxkzn-31" value="Không" style="edgeStyle=orthogonalEdgeStyle;html=1;align=left;verticalAlign=bottom;endArrow=open;endSize=8;strokeColor=#ff0000;rounded=0;" edge="1" parent="0EAiOjiRZh-0OU-kxkzn-27" source="0EAiOjiRZh-0OU-kxkzn-30">
          <mxGeometry x="-1" relative="1" as="geometry">
            <mxPoint x="180" y="800" as="targetPoint" />
          </mxGeometry>
        </mxCell>
        <mxCell id="0EAiOjiRZh-0OU-kxkzn-32" value="Có" style="edgeStyle=orthogonalEdgeStyle;html=1;align=left;verticalAlign=top;endArrow=open;endSize=8;strokeColor=#ff0000;rounded=0;" edge="1" parent="0EAiOjiRZh-0OU-kxkzn-27" source="0EAiOjiRZh-0OU-kxkzn-30" target="0EAiOjiRZh-0OU-kxkzn-35">
          <mxGeometry x="-1" relative="1" as="geometry">
            <mxPoint x="210" y="1000" as="targetPoint" />
            <Array as="points">
              <mxPoint x="100" y="1000" />
            </Array>
          </mxGeometry>
        </mxCell>
        <mxCell id="0EAiOjiRZh-0OU-kxkzn-33" value="&lt;span style=&quot;font-size: 12px;&quot; id=&quot;docs-internal-guid-368e339d-7fff-3b42-c4de-e41b107b2b51&quot;&gt;&lt;span style=&quot;font-size: 12px; font-family: Arial, sans-serif; background-color: transparent; font-variant-numeric: normal; font-variant-east-asian: normal; font-variant-alternates: normal; font-variant-position: normal; vertical-align: baseline; white-space-collapse: preserve;&quot;&gt;Hiển thị thông báo “Lưu không thành công”&lt;/span&gt;&lt;/span&gt;" style="rounded=1;whiteSpace=wrap;html=1;arcSize=40;fontColor=#000000;fillColor=#ffffc0;strokeColor=#ff0000;fontSize=12;" vertex="1" parent="0EAiOjiRZh-0OU-kxkzn-27">
          <mxGeometry x="120" y="760" width="120" height="40" as="geometry" />
        </mxCell>
        <mxCell id="0EAiOjiRZh-0OU-kxkzn-34" value="" style="edgeStyle=orthogonalEdgeStyle;html=1;verticalAlign=bottom;endArrow=open;endSize=8;strokeColor=#ff0000;rounded=0;exitX=0.75;exitY=1;exitDx=0;exitDy=0;entryX=0.5;entryY=0;entryDx=0;entryDy=0;" edge="1" parent="0EAiOjiRZh-0OU-kxkzn-27" source="0EAiOjiRZh-0OU-kxkzn-33" target="0EAiOjiRZh-0OU-kxkzn-35">
          <mxGeometry relative="1" as="geometry">
            <mxPoint x="190" y="860" as="targetPoint" />
          </mxGeometry>
        </mxCell>
        <mxCell id="0EAiOjiRZh-0OU-kxkzn-35" value="" style="ellipse;html=1;shape=endState;fillColor=#000000;strokeColor=#ff0000;" vertex="1" parent="0EAiOjiRZh-0OU-kxkzn-27">
          <mxGeometry x="195" y="980" width="30" height="30" as="geometry" />
        </mxCell>
        <mxCell id="0EAiOjiRZh-0OU-kxkzn-36" value="" style="edgeStyle=orthogonalEdgeStyle;html=1;verticalAlign=bottom;endArrow=open;endSize=8;strokeColor=#ff0000;rounded=0;" edge="1" parent="1" source="0EAiOjiRZh-0OU-kxkzn-23" target="0EAiOjiRZh-0OU-kxkzn-28">
          <mxGeometry relative="1" as="geometry">
            <mxPoint x="260" y="940" as="targetPoint" />
            <Array as="points">
              <mxPoint x="260" y="900" />
            </Array>
          </mxGeometry>
        </mxCell>
      </root>
    </mxGraphModel>
  </diagram>
</mxfile>
